<svg width="24" height="25" viewBox="0 0 24 25" fill="none" xmlns="http://www.w3.org/2000/svg">
<g clip-path="url(#clip0_60_74)">
<path d="M17.1915 24.9475C15.4685 24.7001 13.8288 24.0452 12.4137 23.0404C10.774 21.9081 9.26546 20.5959 7.92091 19.1312C6.26861 17.3815 4.58604 15.6544 3.12797 13.7248C1.98019 12.1751 0.953495 10.5504 0.393478 8.68327C0.00247515 7.49601 -0.0984288 6.23376 0.0958113 5.00151C0.348071 3.5293 1.13512 2.33204 2.21227 1.32974C2.65625 0.937322 3.13806 0.587392 3.65267 0.287452C4.27828 -0.10497 5.07794 -0.0924724 5.69093 0.319945C7.12629 1.16478 8.22362 2.47201 8.80634 4.0217C9.01067 4.46662 8.95265 4.98651 8.65751 5.37643C8.29678 5.85884 7.92091 6.32874 7.55766 6.81115C7.23729 7.23856 6.9043 7.65848 6.61925 8.10839C6.31906 8.5283 6.32411 9.09319 6.63186 9.50811C7.3508 10.5079 8.04704 11.5377 8.82905 12.49C10.2442 14.2247 11.8108 15.8343 13.511 17.2966C13.8894 17.619 14.2955 17.9039 14.6991 18.1964C15.0498 18.4663 15.5291 18.5088 15.9226 18.3063C16.354 18.0939 16.7752 17.8614 17.1839 17.6065C17.749 17.2491 18.3039 16.8816 18.8589 16.5292C19.3256 16.2343 19.9209 16.2218 20.3977 16.4992C21.828 17.2041 22.996 18.3413 23.7275 19.7486C24.1488 20.4684 24.0756 21.3707 23.5459 22.0156C22.1509 23.8302 20.3674 24.95 17.9962 25C17.7262 24.995 17.4589 24.9775 17.1915 24.9475Z" fill="#9C288C"/>
</g>
<defs>
<clipPath id="clip0_60_74">
<rect width="24" height="25" fill="white"/>
</clipPath>
</defs>
</svg>
