<svg width="26" height="25" viewBox="0 0 26 25" fill="none" xmlns="http://www.w3.org/2000/svg">
<g clip-path="url(#clip0_60_76)">
<path d="M21.58 0H4.42C1.9825 0 0 1.96268 0 4.3758V14.8327C0 17.2458 1.9825 19.2085 4.42 19.2085H5.4925L5.07 22.8443C4.94 23.6165 5.2975 24.3565 5.9475 24.7426C6.24 24.9035 6.565 25 6.89 25C7.3125 25 7.735 24.8713 8.125 24.5817L13.65 19.2085H21.58C24.0175 19.2085 26 17.2458 26 14.8327V4.3758C26 1.96268 24.0175 0 21.58 0ZM24.7325 14.8327C24.7325 16.538 23.335 17.9537 21.58 17.9537H13.4225C13.26 17.9537 13.065 17.9858 12.935 18.1145L7.3125 23.6487C6.9875 23.8739 6.695 23.7452 6.5975 23.6808C6.5 23.6165 6.24 23.4234 6.305 23.0051L6.825 18.6615V18.5972C6.825 18.565 6.7925 18.5006 6.7925 18.4685V18.4041C6.76 18.3398 6.76 18.3076 6.7275 18.2754C6.695 18.2432 6.695 18.2111 6.6625 18.2111C6.63 18.1789 6.5975 18.1467 6.565 18.1467C6.5325 18.1145 6.5 18.0824 6.4675 18.0824C6.435 18.0824 6.4025 18.0502 6.4025 18.0502C6.37 18.0502 6.3375 18.018 6.2725 18.018H4.42C2.6975 18.018 1.2675 16.6345 1.2675 14.897V4.3758C1.2675 2.67053 2.665 1.25483 4.42 1.25483H21.6125C23.335 1.25483 24.765 2.63835 24.765 4.3758V14.8327H24.7325Z" fill="#9C288C"/>
<path d="M6.40252 7.14288C5.03752 7.14288 3.90002 8.23683 3.90002 9.62036C3.90002 11.0039 5.00502 12.0978 6.40252 12.0978C7.80002 12.0978 8.90502 11.0039 8.90502 9.62036C8.90502 8.23683 7.80002 7.14288 6.40252 7.14288ZM6.40252 10.843C5.72002 10.843 5.16752 10.296 5.16752 9.62036C5.16752 8.94468 5.72002 8.39771 6.40252 8.39771C7.08502 8.39771 7.63752 8.94468 7.63752 9.62036C7.67002 10.296 7.08502 10.843 6.40252 10.843Z" fill="#9C288C"/>
<path d="M13.0001 7.14288C11.6351 7.14288 10.4976 8.23683 10.4976 9.62036C10.4976 11.0039 11.6026 12.0978 13.0001 12.0978C14.3976 12.0978 15.5026 11.0039 15.5026 9.62036C15.5026 8.23683 14.3651 7.14288 13.0001 7.14288ZM13.0001 10.843C12.3176 10.843 11.7651 10.296 11.7651 9.62036C11.7651 8.94468 12.3176 8.39771 13.0001 8.39771C13.6826 8.39771 14.2351 8.94468 14.2351 9.62036C14.2351 10.296 13.6826 10.843 13.0001 10.843Z" fill="#9C288C"/>
<path d="M19.5975 7.14288C18.2325 7.14288 17.095 8.23683 17.095 9.62036C17.095 11.0039 18.2 12.0978 19.5975 12.0978C20.995 12.0978 22.1 11.0039 22.1 9.62036C22.0675 8.23683 20.9625 7.14288 19.5975 7.14288ZM19.5975 10.843C18.915 10.843 18.3625 10.296 18.3625 9.62036C18.3625 8.94468 18.915 8.39771 19.5975 8.39771C20.28 8.39771 20.8325 8.94468 20.8325 9.62036C20.8325 10.296 20.28 10.843 19.5975 10.843Z" fill="#9C288C"/>
</g>
<defs>
<clipPath id="clip0_60_76">
<rect width="26" height="25" fill="white"/>
</clipPath>
</defs>
</svg>
