<svg width="25" height="17" viewBox="0 0 25 17" fill="none" xmlns="http://www.w3.org/2000/svg">
<path fill-rule="evenodd" clip-rule="evenodd" d="M2.24529 0H22.7547C23.3724 0 23.9338 0.243404 24.34 0.639961C24.7461 1.03378 25 1.57802 25 2.17696V14.823C25 15.422 24.749 15.9662 24.34 16.36C23.9338 16.7539 23.3724 17 22.7547 17H2.24529C1.62755 17 1.06623 16.7566 0.660047 16.3628C0.253864 15.969 0 15.4247 0 14.8258V2.17696C0 1.57802 0.251044 1.03378 0.660047 0.639961C1.06623 0.243404 1.62755 0 2.24529 0ZM23.5107 15.6708L15.4885 9.18372L14.2926 10.1491C13.7961 10.5484 13.1502 10.7535 12.5099 10.7563C11.8696 10.759 11.2236 10.5621 10.7328 10.1628L9.51991 9.18372L1.49216 15.6736C1.69525 15.8431 1.95758 15.9471 2.24529 15.9471H22.7547C23.0424 15.9471 23.3076 15.8431 23.5107 15.6708ZM1.0888 14.6343L8.67652 8.5L1.0888 2.36567V14.6343ZM1.49216 1.32642L9.85558 8.08977L9.86968 8.10071L11.4211 9.35602C11.7116 9.59122 12.1065 9.70882 12.5042 9.70608C12.9048 9.70608 13.2997 9.58301 13.5987 9.34234L15.1331 8.10071L15.1472 8.08977L23.5107 1.32915C23.3076 1.15959 23.0424 1.05566 22.7547 1.05566H2.24529C1.95758 1.05566 1.69525 1.15959 1.49216 1.32915V1.32642ZM23.9112 2.37114L16.3291 8.5L23.9084 14.6289V2.37114H23.9112Z" fill="#9C288C"/>
</svg>
